<svg xmlns="http://www.w3.org/2000/svg" xmlns:xlink="http://www.w3.org/1999/xlink" preserveAspectRatio="xMidYMid meet" width="240" height="240" viewBox="0 0 240 240" style="width:100%;height:100%">
  <defs>
    <animateTransform repeatCount="indefinite" dur="1.3333333s" begin="0s" xlink:href="#_R_G_L_1_G" fill="freeze" attributeName="transform" from="1 1" to="1 1" type="scale" additive="sum" keyTimes="0;0.225;0.625;1" values="1 1;1.12 1.12;1 1;1 1" keySplines="0.497 0 0.674 1;0.246 0 0.515 1;0 0 0 0" calcMode="spline"/>
    <animateTransform repeatCount="indefinite" dur="1.3333333s" begin="0s" xlink:href="#_R_G_L_1_G" fill="freeze" attributeName="transform" from="-180 -180" to="-180 -180" type="translate" additive="sum" keyTimes="0;1" values="-180 -180;-180 -180" keySplines="0 0 1 1" calcMode="spline"/>
    <animate id="circleAnimation" repeatCount="indefinite" dur="1.3333333s" begin="0s" xlink:href="#_R_G_L_0_G_D_0_P_0" fill="freeze" attributeName="stroke" from="#97b49f" to="#97b49f" keyTimes="0;0.25;0.5;0.5625;1" values="#97b49f;#97b49f;#3d9b63;#269553;#269553" keySplines="0.167 0.167 0.833 0.833;0.167 0.167 0.833 0.833;0.167 0.167 0.833 0.833;0 0 0 0" calcMode="spline"/>
    <animate repeatCount="indefinite" dur="1.3333333s" begin="0s" xlink:href="#_R_G_L_0_G_D_0_P_0" fill="freeze" attributeName="stroke-width" from="12" to="3" keyTimes="0;0.375;0.65;1" values="12;12;3;3" keySplines="0.246 0 0.461 1;0.246 0 0.461 1;0 0 0 0" calcMode="spline"/>
    <animate repeatCount="indefinite" dur="1.3333333s" begin="0s" xlink:href="#_R_G_L_0_G" fill="freeze" attributeName="opacity" from="0" to="0" keyTimes="0;0.1875;0.275;0.525;0.65;1" values="0;0;1;1;0;0" keySplines="0.167 0 0.833 1;0.167 0 0.833 1;0.167 0 0.833 1;0.333 0 0.667 1;0 0 0 0" calcMode="spline"/>
    <animateTransform repeatCount="indefinite" dur="1.3333333s" begin="0s" xlink:href="#_R_G_L_0_G" fill="freeze" attributeName="transform" from="0.9 0.9" to="1.24 1.24" type="scale" additive="sum" keyTimes="0;0.225;0.65;1" values="0.9 0.9;0.9 0.9;1.24 1.24;1.24 1.24" keySplines="0.034 0.356 0.986 1;0.034 0.356 0.986 1;0 0 0 0" calcMode="spline"/>
    <animateTransform repeatCount="indefinite" dur="1.3333333s" begin="0s" xlink:href="#_R_G_L_0_G" fill="freeze" attributeName="transform" from="9.5 141.5" to="9.5 141.5" type="translate" additive="sum" keyTimes="0;1" values="9.5 141.5;9.5 141.5" keySplines="0 0 1 1" calcMode="spline"/>
    <animate repeatCount="indefinite" dur="1.3333333s" begin="0s" xlink:href="#_R_G_L_0_G_M" fill="freeze" attributeName="opacity" from="0" to="0" keyTimes="0;0.1875;0.1875013;0.7875;0.7875;1" values="0;0;1;1;0;0" keySplines="0 0 0 0;0 0 0 0;0 0 0 0;0 0 0 0;0 0 0 0" calcMode="spline"/>
    <animate attributeType="XML" attributeName="opacity" dur="1s" from="0" to="1" xlink:href="#time_group"/>
  </defs>
  <g id="_R_G">
    <g id="_R_G_L_1_G" transform="translate(120, 120)">
      <path id="_R_G_L_1_G_D_0_P_0" stroke="#ffffff" stroke-linecap="round" stroke-linejoin="round" fill="none" stroke-width="0" stroke-opacity="1" d="M180 166.64 C180.08,166.64 180.17,166.7 180.22,166.75 C200.41,182.1 234.97,220.08 224.43,230.81 C212.56,241.2 197.02,247.5 180,247.5 C162.98,247.5 147.44,241.2 135.57,230.81 C125.03,220.08 159.59,182.1 179.78,166.75 C179.83,166.7 179.92,166.64 180,166.64z"/>
      <path id="_R_G_L_1_G_D_1_P_0" fill="#ffffff" fill-opacity="1" fill-rule="nonzero" d="M180 166.64 C180.08,166.64 180.17,166.7 180.22,166.75 C200.41,182.1 234.97,220.08 224.43,230.81 C212.56,241.2 197.02,247.5 180,247.5 C162.98,247.5 147.44,241.2 135.57,230.81 C125.03,220.08 159.59,182.1 179.78,166.75 C179.83,166.7 179.92,166.64 180,166.64z"/>
      <path id="_R_G_L_1_G_D_2_P_0" stroke="#ffffff" stroke-linecap="round" stroke-linejoin="round" fill="none" stroke-width="0" stroke-opacity="1" d="M215.16 121.82 C215.29,121.89 215.33,122.03 215.28,122.16 C215.22,122.28 215.08,122.3 214.95,122.27 C201.88,119.45 182.03,130.73 180.14,131.87 C180.1,131.89 180.06,131.92 180,131.92 C179.94,131.92 179.9,131.89 179.86,131.87 C177.98,130.73 158.12,119.45 145.05,122.27 C144.92,122.3 144.78,122.28 144.73,122.16 C144.67,122.03 144.72,121.89 144.84,121.82 C155.18,115.68 166.38,111.94 180,111.94 C193.62,111.94 204.83,115.68 215.16,121.82z"/>
      <path id="_R_G_L_1_G_D_3_P_0" fill="#ffffff" fill-opacity="1" fill-rule="nonzero" d="M215.16 121.82 C215.29,121.89 215.33,122.03 215.28,122.16 C215.22,122.28 215.08,122.3 214.95,122.27 C201.88,119.45 182.03,130.73 180.14,131.87 C180.1,131.89 180.06,131.92 180,131.92 C179.94,131.92 179.9,131.89 179.86,131.87 C177.98,130.73 158.12,119.45 145.05,122.27 C144.92,122.3 144.78,122.28 144.73,122.16 C144.67,122.03 144.72,121.89 144.84,121.82 C155.18,115.68 166.38,111.94 180,111.94 C193.62,111.94 204.83,115.68 215.16,121.82z"/>
      <path id="_R_G_L_1_G_D_4_P_0" stroke="#ffffff" stroke-linecap="round" stroke-linejoin="round" fill="none" stroke-width="0" stroke-opacity="1" d="M132.75 131.87 C132.64,131.93 132.54,132.01 132.45,132.1 C120.13,144.32 112.5,161.27 112.5,180 C112.5,195.38 117.64,209.54 126.3,220.89 C126.39,221 126.54,221.07 126.66,221 C126.78,220.93 126.79,220.78 126.74,220.66 C121.6,204.75 147.9,166.18 161.49,150.01 C161.54,149.95 161.58,149.89 161.58,149.81 C161.58,149.72 161.53,149.64 161.47,149.59 C140.88,129.11 133.89,131.28 132.75,131.87z"/>
      <path id="_R_G_L_1_G_D_5_P_0" fill="#ffffff" fill-opacity="1" fill-rule="nonzero" d="M132.75 131.87 C132.64,131.93 132.54,132.01 132.45,132.1 C120.13,144.32 112.5,161.27 112.5,180 C112.5,195.38 117.64,209.54 126.3,220.89 C126.39,221 126.54,221.07 126.66,221 C126.78,220.93 126.79,220.78 126.74,220.66 C121.6,204.75 147.9,166.18 161.49,150.01 C161.54,149.95 161.58,149.89 161.58,149.81 C161.58,149.72 161.53,149.64 161.47,149.59 C140.88,129.11 133.89,131.28 132.75,131.87z"/>
      <path id="_R_G_L_1_G_D_6_P_0" stroke="#ffffff" stroke-linecap="round" stroke-linejoin="round" fill="none" stroke-width="0" stroke-opacity="1" d="M198.53 149.59 C219.12,129.11 226.12,131.28 227.25,131.87 C227.36,131.93 227.46,132.01 227.55,132.1 C239.87,144.32 247.5,161.27 247.5,180 C247.5,195.38 242.36,209.54 233.7,220.89 C233.61,221 233.46,221.07 233.34,221 C233.22,220.93 233.22,220.78 233.26,220.66 C238.4,204.75 212.1,166.18 198.51,150.01 C198.46,149.95 198.42,149.89 198.42,149.81 C198.42,149.72 198.47,149.64 198.53,149.59z"/>
      <path id="_R_G_L_1_G_D_7_P_0" fill="#ffffff" fill-opacity="1" fill-rule="nonzero" d="M198.53 149.59 C219.12,129.11 226.12,131.28 227.25,131.87 C227.36,131.93 227.46,132.01 227.55,132.1 C239.87,144.32 247.5,161.27 247.5,180 C247.5,195.38 242.36,209.54 233.7,220.89 C233.61,221 233.46,221.07 233.34,221 C233.22,220.93 233.22,220.78 233.26,220.66 C238.4,204.75 212.1,166.18 198.51,150.01 C198.46,149.95 198.42,149.89 198.42,149.81 C198.42,149.72 198.47,149.64 198.53,149.59z"/>
    </g>
    <g id="_R_G_L_0_G_M">
      <g id="_R_G_L_0_G" transform="translate(120, 120)">
        <path id="_R_G_L_0_G_D_0_P_0" stroke="#97b49f" stroke-linecap="round" stroke-linejoin="round" fill="none" stroke-width="12" stroke-opacity="1" d="M-9.5 -231.5 C40.17,-231.5 80.5,-191.17 80.5,-141.5 C80.5,-91.83 40.17,-51.5 -9.5,-51.5 C-59.17,-51.5 -99.5,-91.83 -99.5,-141.5 C-99.5,-191.17 -59.17,-231.5 -9.5,-231.5z"/>
      </g>
    </g>
  </g>
  <g id="time_group"/>
</svg>