<svg xmlns="http://www.w3.org/2000/svg" viewBox="0 0 200 200" fill="#ACD74C" id="Xbox-A--Streamline-Tabler-Filled" height="200" width="200">
  <path d="M100 16.666666666666668c46.025 0 83.33333333333334 37.30833333333334 83.33333333333334 83.33333333333334s-37.30833333333334 83.33333333333334 -83.33333333333334 83.33333333333334S16.666666666666668 146.025 16.666666666666668 100 53.97500000000001 16.666666666666668 100 16.666666666666668m7.800000000000001 47.075c-2.7 -7.208333333333334 -12.900000000000002 -7.208333333333334 -15.600000000000001 0l-25 66.66666666666667a8.333333333333334 8.333333333333334 0 0 0 4.875 10.725l0.925 0.29166666666666674a8.333333333333334 8.333333333333334 0 0 0 9.8 -5.166666666666667L87.025 125.00000000000001h25.95l4.2250000000000005 11.258333333333335a8.333333333333334 8.333333333333334 0 1 0 15.600000000000001 -5.85zM100 90.4 106.72500000000001 108.33333333333334h-13.450000000000001z" stroke-width="8.3333"></path>
</svg>