<?xml version="1.0" standalone="no"?><!DOCTYPE svg PUBLIC "-//W3C//DTD SVG 1.1//EN" "http://www.w3.org/Graphics/SVG/1.1/DTD/svg11.dtd"><svg t="1719107543604" class="icon" viewBox="0 0 1024 1024" version="1.1" xmlns="http://www.w3.org/2000/svg" p-id="20854" xmlns:xlink="http://www.w3.org/1999/xlink" width="16" height="16"><path d="M512 972.8C260.266667 972.8 51.2 763.733333 51.2 512S260.266667 51.2 512 51.2 972.8 260.266667 972.8 512 763.733333 972.8 512 972.8z m0-853.333333c-217.6 0-392.533333 174.933333-392.533333 392.533333s174.933333 392.533333 392.533333 392.533333 392.533333-174.933333 392.533333-392.533333-174.933333-392.533333-392.533333-392.533333z" p-id="20855" fill="#333333"></path><path d="M640 716.8c-12.8 0-25.6-8.533333-29.866667-21.333333L512 430.933333l-98.133333 260.266667c-4.266667 17.066667-25.6 25.6-42.666667 17.066667-17.066667-4.266667-25.6-25.6-17.066667-42.666667l128-341.333333c4.266667-12.8 17.066667-21.333333 29.866667-21.333334s25.6 8.533333 29.866667 21.333334l128 341.333333c4.266667 17.066667-4.266667 34.133333-17.066667 42.666667-4.266667 4.266667-8.533333 8.533333-12.8 8.533333z" p-id="20856" fill="#333333"></path><path d="M597.333333 631.466667h-170.666666c-17.066667 0-34.133333-12.8-34.133334-34.133334s12.8-34.133333 34.133334-34.133333h170.666666c17.066667 0 34.133333 12.8 34.133334 34.133333s-17.066667 34.133333-34.133334 34.133334z" p-id="20857" fill="#333333"></path></svg>