<svg xmlns="http://www.w3.org/2000/svg" viewBox="0 0 200 200" fill="#F78F6F" id="Xbox-B--Streamline-Tabler-Filled" height="200" width="200">
  <path d="M100 16.666666666666668c46.025 0 83.33333333333334 37.30833333333334 83.33333333333334 83.33333333333334s-37.30833333333334 83.33333333333334 -83.33333333333334 83.33333333333334S16.666666666666668 146.025 16.666666666666668 100 53.97500000000001 16.666666666666668 100 16.666666666666668m8.333333333333334 41.66666666666667h-25a8.333333333333334 8.333333333333334 0 0 0 -8.333333333333334 8.333333333333334v66.66666666666667a8.333333333333334 8.333333333333334 0 0 0 8.333333333333334 8.333333333333334h25a25 25 0 0 0 18.625 -41.66666666666667A25 25 0 0 0 108.33333333333334 58.333333333333336m0 50a8.333333333333334 8.333333333333334 0 0 1 8.333333333333334 8.333333333333334l-0.05833333333333334 0.9750000000000001A8.333333333333334 8.333333333333334 0 0 1 108.33333333333334 125.00000000000001h-16.666666666666668v-16.666666666666668zm0 -33.333333333333336a8.333333333333334 8.333333333333334 0 0 1 0 16.666666666666668h-16.666666666666668V75z" stroke-width="8.3333"></path>
</svg>