<?xml version="1.0" standalone="no"?><!DOCTYPE svg PUBLIC "-//W3C//DTD SVG 1.1//EN" "http://www.w3.org/Graphics/SVG/1.1/DTD/svg11.dtd"><svg t="1719107378427" class="icon" viewBox="0 0 1024 1024" version="1.1" xmlns="http://www.w3.org/2000/svg" p-id="11860" xmlns:xlink="http://www.w3.org/1999/xlink" width="16" height="16"><path d="M85.333333 447.018667C85.333333 555.178667 194.133333 896 447.018667 896H896a42.666667 42.666667 0 0 0 38.186667-61.866667c-1.194667-2.133333-109.866667-220.458667-109.866667-365.482666 0-149.973333 31.36-286.976 31.658667-288.298667A42.837333 42.837333 0 0 0 814.378667 128H182.485333a42.666667 42.666667 0 0 0-40.832 30.293333C139.349333 165.888 85.333333 344.32 85.333333 447.061333zM488.533333 682.666667H298.666667V341.333333h68.821333v284.16h121.002667z m248.96-283.818667H653.226667V682.666667h-69.162667V398.848h-83.029333V341.333333h236.501333z" fill="#333" p-id="11861"></path></svg>