<?xml version="1.0" standalone="no"?><!DOCTYPE svg PUBLIC "-//W3C//DTD SVG 1.1//EN" "http://www.w3.org/Graphics/SVG/1.1/DTD/svg11.dtd"><svg t="1719108105732" class="icon" viewBox="0 0 1024 1024" version="1.1" xmlns="http://www.w3.org/2000/svg" p-id="58307" xmlns:xlink="http://www.w3.org/1999/xlink" width="16" height="16"><path d="M494.006857 199.789714c9.325714 12.544 26.331429 12.214857 35.364572 0l66.852571-88.722285c13.824-17.993143 6.4-41.142857-18.029714-41.142858h-133.046857c-23.478857 0-31.817143 22.491429-17.700572 41.142858l66.56 88.722285z m17.664 480.548572c207.981714 0 341.028571-92.269714 341.028572-221.147429 0-128.914286-133.376-221.147429-341.357715-221.147428-207.323429 0-340.370286 92.233143-340.370285 221.147428 0 128.877714 133.046857 221.110857 340.699428 221.110857z m0-64.621715c-162.304 0-271.286857-63.305143-271.286857-156.525714 0-93.257143 108.982857-156.525714 270.994286-156.525714 162.633143 0 271.908571 63.268571 271.908571 156.525714 0 93.220571-108.982857 156.525714-271.616 156.525714z m-52.370286-59.136c13.824 0 22.491429-9.654857 22.491429-24.758857V487.131429h29.257143l33.718857 54.966857c7.094857 10.971429 12.873143 14.774857 22.198857 14.774857 11.885714 0 21.211429-8.045714 21.211429-19.894857a25.6 25.6 0 0 0-4.827429-15.104l-27.940571-42.422857c23.771429-9.033143 38.217143-30.866286 38.217143-56.576 0-39.862857-28.598857-64.621714-73.581715-64.621715h-59.172571c-15.067429 0-23.771429 9.654857-23.771429 26.331429v147.236571c0 15.433143 8.374857 24.758857 22.198857 24.758857z m22.491429-104.155428v-58.806857h32.768c20.589714 0 33.133714 11.556571 33.133714 29.878857 0 18.322286-12.214857 28.928-33.462857 28.928h-32.438857z m29.878857 372.224c83.273143 0 133.741714-38.912 133.741714-105.106286v-10.934857a621.238857 621.238857 0 0 1-133.741714 13.824c-47.908571 0-92.562286-4.827429-133.376-13.824v10.934857c0 66.194286 50.468571 105.106286 133.376 105.106286z" fill="#333" p-id="58308"></path></svg>