<svg xmlns="http://www.w3.org/2000/svg" viewBox="0 0 200 200" fill="#4CBFF2" id="Xbox-X--Streamline-Tabler-Filled" height="200" width="200">
  <path d="M100 16.666666666666668c46.025 0 83.33333333333334 37.30833333333334 83.33333333333334 83.33333333333334s-37.30833333333334 83.33333333333334 -83.33333333333334 83.33333333333334S16.666666666666668 146.025 16.666666666666668 100 53.97500000000001 16.666666666666668 100 16.666666666666668m30.000000000000004 43.333333333333336a8.333333333333334 8.333333333333334 0 0 0 -11.666666666666666 1.666666666666667L100 86.10833333333333 81.66666666666667 61.66666666666667a8.333333333333334 8.333333333333334 0 1 0 -13.333333333333336 10l21.25 28.333333333333336 -21.25 28.333333333333336a8.333333333333334 8.333333333333334 0 1 0 13.333333333333336 10l18.333333333333336 -24.441666666666666 18.333333333333336 24.441666666666666a8.333333333333334 8.333333333333334 0 0 0 13.333333333333336 -10L110.41666666666667 100l21.25 -28.333333333333336a8.333333333333334 8.333333333333334 0 0 0 -1.666666666666667 -11.666666666666666" stroke-width="8.3333"></path>
</svg>